<svg width="220" height="160" viewBox="0 0 220 160" fill="none" xmlns="http://www.w3.org/2000/svg">
  <rect x="10" y="20" width="200" height="120" rx="20" fill="url(#paint0_linear)"/>
  <rect x="35" y="45" width="150" height="70" rx="14" fill="white" opacity="0.9"/>
  <circle cx="70" cy="80" r="18" fill="#667EEA"/>
  <path d="M70 68C63.3726 68 58 73.3726 58 80C58 86.6274 63.3726 92 70 92C76.6274 92 82 86.6274 82 80C82 73.3726 76.6274 68 70 68ZM70 72C75.5228 72 80 76.4772 80 82C80 87.5228 75.5228 92 70 92C64.4772 92 60 87.5228 60 82C60 76.4772 64.4772 72 70 72Z" fill="white"/>
  <circle cx="62" cy="80" r="3" fill="white"/>
  <circle cx="78" cy="80" r="3" fill="white"/>
  <rect x="95" y="63" width="70" height="10" rx="5" fill="#E0E7FF"/>
  <rect x="95" y="80" width="55" height="10" rx="5" fill="#E0E7FF"/>
  <rect x="95" y="97" width="80" height="10" rx="5" fill="#E0E7FF" opacity="0.6"/>
  <path d="M42 110C46 117 54 123 64 125" stroke="#C7D2FE" stroke-width="4" stroke-linecap="round"/>
  <path d="M178 50C172 42 164 38 154 37" stroke="#C7D2FE" stroke-width="4" stroke-linecap="round"/>
  <defs>
    <linearGradient id="paint0_linear" x1="10" y1="20" x2="210" y2="140" gradientUnits="userSpaceOnUse">
      <stop stop-color="#667EEA"/>
      <stop offset="1" stop-color="#764BA2"/>
    </linearGradient>
  </defs>
</svg>
